# xmcd CD database file
# Copyright (C) 1997 Ti Kan
# 
# Track frame offsets:
#     183
#     11773
#     23880
#     36748
#     48730
#     65850
#     75918
#     91828
#     109645
#     120018
# 
# Disc length: 1776 seconds
# 
# Revision: 1
# Processed by: cddbd v1.4b41PL1 Copyright (c) Steve Scherf et al.
# Submitted via: DiscPlay 4.0.4
# 
DISCID=7906ee0a
DTITLE=John Lee Hooker - Blues Before Sunrise
DYEAR=1900
DGENRE=
TTITLE0=Little Wheel
TTITLE1=I'm In The Mood
TTITLE2=Hobo Blues
TTITLE3=Crawling King Snake
TTITLE4=Blues Before Sunrise
TTITLE5=Want Ad Blues
TTITLE6=My First Wife Left Me
TTITLE7=Wednesday Evening Blues
TTITLE8=Maudie
TTITLE9=Time Is Marching
EXTD=
EXTT0=
EXTT1=
EXTT2=
EXTT3=
EXTT4=
EXTT5=
EXTT6=
EXTT7=
EXTT8=
EXTT9=
PLAYORDER=
